<svg width="56" height="32" viewBox="0 0 56 32" fill="none" xmlns="http://www.w3.org/2000/svg">
<path d="M47.0332 24.8999H55.3332L27.6666 0L0 24.8999H8.29997L27.6666 7.44231L47.0332 24.8999ZM13.8333 5.00765V0H5.53332V12.45L13.8333 5.00765Z" fill="#484848"/>
<path d="M25.8458 23.7379C25.8458 24.4462 25.6798 25.0936 25.3478 25.6801C25.0269 26.2556 24.5344 26.7204 23.8704 27.0745C23.2175 27.4176 22.4151 27.5891 21.4634 27.5891H19.8532V31.5399H16.5996V19.8369H21.4634C22.4041 19.8369 23.2009 20.0029 23.8538 20.3349C24.5178 20.6669 25.0158 21.1262 25.3478 21.7127C25.6798 22.2992 25.8458 22.9743 25.8458 23.7379ZM21.148 24.9995C22.0665 24.9995 22.5258 24.579 22.5258 23.7379C22.5258 22.8858 22.0665 22.4597 21.148 22.4597H19.8532V24.9995H21.148Z" fill="#484848"/>
<path d="M38.5405 19.8369L34.5067 31.5399H30.3401L26.2897 19.8369H29.7757L32.4317 28.2863L35.0711 19.8369H38.5405Z" fill="#484848"/>
</svg>
